# xmcd
#
# Track frame offsets:
#	150
#	21062
#	38182
#	54691
#	74492
#	92498
#	109360
#	130927
#	144471
#	158248
#	177896
#	194914
#	217044
#	234979
#	253049
#	269366
#	289223
#	310461
#
# Disc length: 4375 seconds
#
# Revision: 0
# Processed by: cddbd v1.5.1PL2 Copyright (c) Steve Scherf et al.
# Submitted via: dBpowerAMP V4.0
#
DISCID=1a111512
DTITLE=王力宏 - 盖世英雄
DYEAR=1900
DGENRE=R&B
TTITLE0=在梅边
TTITLE1=花田错
TTITLE2=盖世英雄
TTITLE3=kiss goodbye
TTITLE4=完美地互动
TTITLE5=大城小爱
TTITLE6=第一个清晨
TTITLE7=哥儿们
TTITLE8=巨龙
TTITLE9=爱因为在心中
TTITLE10=放开你的心
TTITLE11=forever love
TTITLE12=心中的日月
TTITLE13=竹林深处
TTITLE14=情敌贝多芬
TTITLE15=唯一
TTITLE16=我就喜欢
TTITLE17=在那遥远的地方
EXTD=盖世英雄 王力宏\n
EXTT0=
EXTT1=
EXTT2=
EXTT3=
EXTT4=
EXTT5=
EXTT6=
EXTT7=
EXTT8=
EXTT9=
EXTT10=
EXTT11=
EXTT12=
EXTT13=
EXTT14=
EXTT15=
EXTT16=
EXTT17=
PLAYORDER=
